# xmcd CD database file
#
# Track frame offsets:
#	150
#	20947
#	31878
#	43112
#	62144
#	75622
#	84956
#	102671
#	131916
#
# Disc length: 1999 seconds
#
# Revision: 0
# Processed by: cddbd v1.5.2PL0 Copyright (c) Steve Scherf et al.
# Submitted via: CDex 1.70beta2
#
DISCID=7807cd09
DTITLE=No Mercy Jugband - I Can Dance
DYEAR=2000
DGENRE=Jazz
TTITLE0=I Can Dance
TTITLE1=Go Down Ol' Hannah
TTITLE2=Duelling Banjos
TTITLE3=Over On The New Burying Ground
TTITLE4=Little Red Hen
TTITLE5=Midnight Special
TTITLE6=My Gal
TTITLE7=Precious Lord (Take My Hand)
TTITLE8=(Data)
EXTD=YEAR: 2000
EXTT0=
EXTT1=
EXTT2=
EXTT3=
EXTT4=
EXTT5=
EXTT6=
EXTT7=
EXTT8=
PLAYORDER=
